<svg width="32" height="32" viewBox="0 0 32 32" fill="none" xmlns="http://www.w3.org/2000/svg">
<path d="M14.228 7.84451C14.6546 5.95605 17.3454 5.95605 17.772 7.84451V7.84451C18.0484 9.06842 19.4529 9.65018 20.5138 8.98024V8.98024C22.1508 7.94653 24.0535 9.84919 23.0198 11.4862V11.4862C22.3498 12.5471 22.9316 13.9516 24.1555 14.228V14.228C26.0439 14.6546 26.0439 17.3454 24.1555 17.772V17.772C22.9316 18.0484 22.3498 19.4529 23.0198 20.5138V20.5138C24.0535 22.1508 22.1508 24.0535 20.5138 23.0198V23.0198C19.4529 22.3498 18.0484 22.9316 17.772 24.1555V24.1555C17.3454 26.0439 14.6546 26.0439 14.228 24.1555V24.1555C13.9516 22.9316 12.5471 22.3498 11.4862 23.0198V23.0198C9.84919 24.0535 7.94653 22.1508 8.98024 20.5138V20.5138C9.65018 19.4529 9.06842 18.0484 7.84451 17.772V17.772C5.95606 17.3454 5.95605 14.6546 7.84451 14.228V14.228C9.06842 13.9516 9.65018 12.5471 8.98024 11.4862V11.4862C7.94653 9.84919 9.84919 7.94653 11.4862 8.98024V8.98024C12.5471 9.65018 13.9516 9.06842 14.228 7.84451V7.84451Z" stroke="#52B954"/>
<path d="M20.3813 13.8301L14.8641 19.3474C14.8321 19.3794 14.794 19.4049 14.7522 19.4222C14.7103 19.4396 14.6655 19.4485 14.6201 19.4485C14.5748 19.4485 14.53 19.4396 14.4881 19.4222C14.4462 19.4049 14.4082 19.3794 14.3762 19.3474L11.9624 16.9336C11.8977 16.8689 11.8613 16.7811 11.8613 16.6896C11.8613 16.5981 11.8977 16.5104 11.9624 16.4457C12.0271 16.3809 12.1148 16.3446 12.2063 16.3446C12.2979 16.3446 12.3856 16.3809 12.4503 16.4457L14.6201 18.6159L19.8934 13.3422C19.9581 13.2775 20.0459 13.2411 20.1374 13.2411C20.2289 13.2411 20.3166 13.2775 20.3813 13.3422C20.4461 13.4069 20.4824 13.4947 20.4824 13.5862C20.4824 13.6777 20.4461 13.7654 20.3813 13.8301Z" fill="#52B954" stroke="#52B954" stroke-width="0.5"/>
</svg>
