<svg width="14" height="21" viewBox="0 0 14 21" fill="none" xmlns="http://www.w3.org/2000/svg">
<mask id="path-1-outside-1_348_216" maskUnits="userSpaceOnUse" x="-1" y="-1" width="16" height="23" fill="black">
<rect fill="white" x="-1" y="-1" width="16" height="23"/>
<path d="M3.248 21V6.216C3.248 5.11467 3.49067 4.12533 3.976 3.248C4.48 2.352 5.18 1.652 6.076 1.148C6.972 0.625332 8.036 0.363999 9.268 0.363999C10.2013 0.363999 11.0133 0.522666 11.704 0.839999C12.4133 1.13867 13.0293 1.55867 13.552 2.1L10.864 4.788C10.6773 4.60133 10.4627 4.46133 10.22 4.368C9.996 4.256 9.72533 4.2 9.408 4.2C8.82933 4.2 8.372 4.368 8.036 4.704C7.7 5.04 7.532 5.49733 7.532 6.076V21H3.248ZM0.252 11.032V7.392H11.452V11.032H0.252Z"/>
</mask>
<path d="M3.248 21H2.448V21.8H3.248V21ZM3.976 3.248L3.27872 2.85578L3.27597 2.86075L3.976 3.248ZM6.076 1.148L6.46826 1.84534L6.4791 1.83902L6.076 1.148ZM11.704 0.839999L11.37 1.56694L11.3817 1.57231L11.3936 1.57731L11.704 0.839999ZM13.552 2.1L14.1177 2.66569L14.6735 2.10984L14.1275 1.54432L13.552 2.1ZM10.864 4.788L10.2983 5.35368L10.864 5.91937L11.4297 5.35368L10.864 4.788ZM10.22 4.368L9.86223 5.08354L9.89677 5.10081L9.93282 5.11468L10.22 4.368ZM8.036 4.704L7.47031 4.13831H7.47031L8.036 4.704ZM7.532 21V21.8H8.332V21H7.532ZM0.252 11.032H-0.548V11.832H0.252V11.032ZM0.252 7.392V6.592H-0.548V7.392H0.252ZM11.452 7.392H12.252V6.592H11.452V7.392ZM11.452 11.032V11.832H12.252V11.032H11.452ZM4.048 21V6.216H2.448V21H4.048ZM4.048 6.216C4.048 5.23648 4.26257 4.38264 4.67603 3.63525L3.27597 2.86075C2.71876 3.86802 2.448 4.99286 2.448 6.216H4.048ZM4.67326 3.64021C5.10543 2.87191 5.69991 2.27743 6.46821 1.84526L5.68379 0.450738C4.66009 1.02657 3.85457 1.83209 3.27874 2.85579L4.67326 3.64021ZM6.4791 1.83902C7.23157 1.40008 8.15092 1.164 9.268 1.164V-0.436001C7.92108 -0.436001 6.71244 -0.149418 5.6729 0.456975L6.4791 1.83902ZM9.268 1.164C10.1117 1.164 10.8052 1.30742 11.37 1.56694L12.038 0.113058C11.2215 -0.26209 10.291 -0.436001 9.268 -0.436001V1.164ZM11.3936 1.57731C12.0055 1.83496 12.5307 2.19399 12.9765 2.65567L14.1275 1.54432C13.528 0.92334 12.8212 0.442368 12.0144 0.102691L11.3936 1.57731ZM12.9863 1.53431L10.2983 4.22231L11.4297 5.35368L14.1177 2.66569L12.9863 1.53431ZM11.4297 4.22231C11.1651 3.95775 10.856 3.75547 10.5072 3.62132L9.93282 5.11468C10.0694 5.1672 10.1895 5.24492 10.2983 5.35368L11.4297 4.22231ZM10.5778 3.65246C10.217 3.47209 9.81726 3.4 9.408 3.4V5C9.6334 5 9.77496 5.03991 9.86223 5.08354L10.5778 3.65246ZM9.408 3.4C8.66639 3.4 7.9879 3.62073 7.47031 4.13831L8.60169 5.26968C8.7561 5.11527 8.99228 5 9.408 5V3.4ZM7.47031 4.13831C6.95273 4.6559 6.732 5.33439 6.732 6.076H8.332C8.332 5.66028 8.44727 5.4241 8.60169 5.26968L7.47031 4.13831ZM6.732 6.076V21H8.332V6.076H6.732ZM7.532 20.2H3.248V21.8H7.532V20.2ZM1.052 11.032V7.392H-0.548V11.032H1.052ZM0.252 8.192H11.452V6.592H0.252V8.192ZM10.652 7.392V11.032H12.252V7.392H10.652ZM11.452 10.232H0.252V11.832H11.452V10.232Z" fill="#FCFCFC" mask="url(#path-1-outside-1_348_216)"/>
</svg>
