<svg width="78" height="78" viewBox="0 0 78 78" fill="none" xmlns="http://www.w3.org/2000/svg">
<circle cx="39" cy="39" r="39" fill="#FFCC2A"/>
<path d="M42.0506 25.6119C42.1016 25.4215 42.1895 25.243 42.3094 25.0867C42.4293 24.9303 42.5789 24.7991 42.7495 24.7005C42.9201 24.602 43.1085 24.538 43.3039 24.5123C43.4993 24.4866 43.6978 24.4996 43.8881 24.5506C46.6689 25.2761 49.206 26.7298 51.2381 28.7619C53.2702 30.794 54.7239 33.3311 55.4494 36.1119C55.5004 36.3022 55.5134 36.5007 55.4877 36.6961C55.462 36.8915 55.398 37.0799 55.2995 37.2505C55.2009 37.4211 55.0697 37.5707 54.9133 37.6906C54.757 37.8105 54.5785 37.8984 54.3881 37.9494C54.2614 37.9826 54.131 37.9997 54 38C53.6697 38.0001 53.3486 37.8912 53.0866 37.6901C52.8245 37.4891 52.6361 37.2072 52.5506 36.8881C51.9592 34.6177 50.7729 32.5462 49.1141 30.8871C47.4553 29.2279 45.384 28.0412 43.1138 27.4494C42.9232 27.3986 42.7446 27.3109 42.588 27.191C42.4314 27.0712 42.3 26.9217 42.2013 26.751C42.1025 26.5804 42.0384 26.3919 42.0125 26.1964C41.9867 26.001 41.9996 25.8023 42.0506 25.6119ZM41.6138 33.4494C44.1994 34.1394 45.8606 35.8025 46.5506 38.3881C46.6361 38.7072 46.8245 38.9891 47.0866 39.1901C47.3486 39.3912 47.6697 39.5001 48 39.5C48.131 39.4997 48.2614 39.4826 48.3881 39.4494C48.5785 39.3984 48.757 39.3105 48.9133 39.1906C49.0697 39.0707 49.2009 38.9211 49.2995 38.7505C49.398 38.5799 49.462 38.3915 49.4877 38.1961C49.5134 38.0007 49.5004 37.8022 49.4494 37.6119C48.4894 34.0194 45.9806 31.5106 42.3881 30.5506C42.0037 30.4479 41.5943 30.5021 41.2499 30.7013C40.9055 30.9005 40.6543 31.2284 40.5516 31.6128C40.4489 31.9972 40.5031 32.4066 40.7023 32.7511C40.9015 33.0955 41.2294 33.3467 41.6138 33.4494ZM55.1944 48.2112L46.3613 44.2531L46.3369 44.2419C45.8783 44.0457 45.3781 43.967 44.8815 44.0129C44.3848 44.0587 43.9074 44.2276 43.4925 44.5044C43.4437 44.5366 43.3967 44.5717 43.3519 44.6094L38.7881 48.5C35.8969 47.0956 32.9119 44.1331 31.5075 41.2794L35.4038 36.6462C35.4413 36.5994 35.4769 36.5525 35.5106 36.5019C35.7814 36.0881 35.9457 35.6137 35.9889 35.1211C36.0321 34.6284 35.9528 34.1327 35.7581 33.6781V33.6556L31.7888 24.8075C31.5314 24.2136 31.0889 23.7189 30.5272 23.3972C29.9656 23.0755 29.315 22.944 28.6725 23.0225C26.1318 23.3568 23.7997 24.6046 22.1118 26.5327C20.4238 28.4608 19.4954 30.9374 19.5 33.5C19.5 48.3875 31.6125 60.5 46.5 60.5C49.0626 60.5046 51.5392 59.5762 53.4673 57.8882C55.3955 56.2003 56.6432 53.8682 56.9775 51.3275C57.0561 50.6852 56.9249 50.0348 56.6036 49.4732C56.2822 48.9116 55.7879 48.4689 55.1944 48.2112Z" fill="#1F8621"/>
</svg>
