<svg width="75" height="70" viewBox="0 0 75 70" fill="none" xmlns="http://www.w3.org/2000/svg">
<path d="M6.47857 33.8008C5.91196 34.7615 6.23144 35.9997 7.19214 36.5663L42.2131 57.221C43.9008 58.2163 46.0758 57.6551 47.0711 55.9675L47.0952 55.9266C47.2027 55.7444 47.2912 55.5516 47.3592 55.3513C47.8537 53.8956 47.2019 52.2979 45.8303 51.6036L9.13019 33.025C8.18001 32.5439 7.0196 32.8835 6.47857 33.8008Z" fill="#FFCC2A"/>
<path d="M28.5218 24.1782C27.8774 24.985 28.009 26.1614 28.8158 26.8059L48.8056 42.7729C50.2427 43.9207 52.3382 43.6863 53.4861 42.2492L53.5168 42.2107C53.6007 42.1058 53.6765 41.9947 53.7436 41.8784C54.4503 40.6542 54.0832 39.0915 52.9053 38.31L31.0163 23.7871C30.209 23.2516 29.1264 23.4213 28.5218 24.1782Z" fill="#FFCC2A"/>
<path d="M47.6344 4.72838C46.9343 5.1541 46.7118 6.06676 47.1375 6.76688L62.1734 31.4944C62.9224 32.7262 64.5282 33.1176 65.76 32.3686L65.7905 32.3501C65.9191 32.2718 66.0396 32.1809 66.1502 32.0786C66.9791 31.3119 67.1134 30.0503 66.4644 29.1262L49.6193 5.14331C49.1702 4.50387 48.302 4.3224 47.6344 4.72838Z" fill="#FFCC2A"/>
</svg>
