<svg width="78" height="76" viewBox="0 0 78 76" fill="none" xmlns="http://www.w3.org/2000/svg">
<path d="M69.1099 31.2072C69.4073 30.1322 68.777 29.0197 67.7021 28.7223L28.5161 17.8801C26.6278 17.3576 24.6734 18.4649 24.1509 20.3533L24.1383 20.399C24.0819 20.6029 24.0466 20.812 24.0329 21.0232C23.9338 22.5573 24.9784 23.9307 26.4834 24.2446L66.7511 32.6456C67.7936 32.8631 68.8259 32.2336 69.1099 31.2072Z" fill="#FFCC2A"/>
<path d="M50.3243 46.2286C50.7368 45.282 50.304 44.1803 49.3574 43.7677L25.9045 33.5452C24.2184 32.8103 22.2559 33.5814 21.521 35.2674L21.5013 35.3126C21.4476 35.4357 21.4033 35.5627 21.3687 35.6924C21.0045 37.0583 21.7652 38.4718 23.1057 38.9203L48.0172 47.2546C48.9359 47.562 49.9372 47.1167 50.3243 46.2286Z" fill="#FFCC2A"/>
<path d="M36.9245 69.9777C37.4899 69.3846 37.4675 68.4455 36.8744 67.8801L15.9282 47.9106C14.8847 46.9158 13.2324 46.9553 12.2376 47.9987L12.213 48.0245C12.1091 48.1335 12.0163 48.2526 11.9362 48.3801C11.335 49.336 11.5333 50.5891 12.4002 51.3127L34.9 70.0929C35.4999 70.5937 36.3853 70.5433 36.9245 69.9777Z" fill="#FFCC2A"/>
</svg>
