<svg width="36" height="36" viewBox="0 0 36 36" fill="none" xmlns="http://www.w3.org/2000/svg">
<rect width="36" height="36" rx="18" fill="#D3EED3"/>
<path d="M24.0998 24.3859L19.6982 17.4685L24.0414 12.6908C24.1396 12.5801 24.1902 12.4351 24.1823 12.2873C24.1743 12.1395 24.1085 12.0008 23.9989 11.9012C23.8894 11.8017 23.745 11.7493 23.5971 11.7555C23.4492 11.7617 23.3097 11.8259 23.2089 11.9342L19.0717 16.4848L16.2248 12.0109C16.174 11.931 16.1039 11.8652 16.0209 11.8196C15.9379 11.774 15.8448 11.75 15.7501 11.75H12.3751C12.2743 11.75 12.1753 11.777 12.0885 11.8284C12.0017 11.8797 11.9303 11.9535 11.8817 12.0419C11.8332 12.1303 11.8094 12.2301 11.8127 12.3309C11.816 12.4317 11.8463 12.5298 11.9005 12.6148L16.3021 19.5315L11.9589 24.3127C11.9082 24.3672 11.8688 24.4312 11.843 24.501C11.8172 24.5709 11.8055 24.6451 11.8086 24.7195C11.8117 24.7939 11.8295 24.8669 11.8611 24.9343C11.8926 25.0017 11.9372 25.0622 11.9923 25.1123C12.0474 25.1623 12.1119 25.201 12.182 25.2259C12.2521 25.2509 12.3265 25.2617 12.4008 25.2577C12.4752 25.2537 12.5479 25.235 12.615 25.2026C12.682 25.1703 12.742 25.125 12.7914 25.0693L16.9286 20.5187L19.7755 24.9927C19.8267 25.0719 19.897 25.137 19.9799 25.182C20.0629 25.227 20.1558 25.2503 20.2501 25.25H23.6251C23.7259 25.25 23.8248 25.2229 23.9115 25.1716C23.9982 25.1202 24.0695 25.0466 24.118 24.9583C24.1665 24.87 24.1904 24.7703 24.1872 24.6696C24.184 24.5689 24.1538 24.4709 24.0998 24.3859ZM20.5588 24.125L13.3996 12.875H15.4387L22.6007 24.125H20.5588Z" fill="#52B954"/>
</svg>
