<svg width="24" height="25" viewBox="0 0 24 25" fill="none" xmlns="http://www.w3.org/2000/svg">
<path d="M20.133 20.3478L14.2643 11.1247L20.0552 4.75438C20.1862 4.60674 20.2537 4.41343 20.2431 4.21636C20.2325 4.01929 20.1446 3.83435 19.9986 3.70161C19.8525 3.56888 19.66 3.49907 19.4628 3.50731C19.2657 3.51555 19.0797 3.60117 18.9452 3.74562L13.4289 9.81312L9.633 3.84781C9.56531 3.74127 9.47183 3.65353 9.36121 3.59274C9.25059 3.53194 9.12642 3.50004 9.00019 3.5H4.50019C4.36571 3.49993 4.2337 3.53603 4.11796 3.60449C4.00222 3.67296 3.90702 3.77129 3.84232 3.88918C3.77763 4.00707 3.74582 4.14018 3.75023 4.27458C3.75463 4.40898 3.7951 4.53973 3.86738 4.65313L9.73613 13.8753L3.94519 20.2503C3.87756 20.323 3.82503 20.4083 3.79063 20.5014C3.75623 20.5945 3.74065 20.6935 3.74479 20.7927C3.74894 20.8918 3.77272 20.9892 3.81477 21.0791C3.85681 21.169 3.91628 21.2496 3.98973 21.3164C4.06318 21.3831 4.14915 21.4346 4.24265 21.4679C4.33615 21.5012 4.43533 21.5156 4.53443 21.5103C4.63354 21.5049 4.7306 21.48 4.81999 21.4369C4.90938 21.3937 4.98932 21.3333 5.05519 21.2591L10.5714 15.1916L14.3674 21.1569C14.4356 21.2625 14.5293 21.3494 14.6399 21.4093C14.7505 21.4693 14.8744 21.5005 15.0002 21.5H19.5002C19.6345 21.5 19.7664 21.4638 19.882 21.3954C19.9976 21.327 20.0927 21.2288 20.1573 21.111C20.222 20.9933 20.2539 20.8604 20.2496 20.7261C20.2453 20.5918 20.205 20.4612 20.133 20.3478ZM15.4118 20L5.86613 5H8.58488L18.1343 20H15.4118Z" fill="#FCFCFC"/>
</svg>
